<?xml version="1.0" standalone="no"?>
<!DOCTYPE svg PUBLIC "-//W3C//DTD SVG 20010904//EN"
 "http://www.w3.org/TR/2001/REC-SVG-20010904/DTD/svg10.dtd">
<svg version="1.0" xmlns="http://www.w3.org/2000/svg"
 width="800.000000pt" height="800.000000pt" viewBox="0 0 800.000000 800.000000"
 preserveAspectRatio="xMidYMid meet">

<g transform="translate(0.000000,800.000000) scale(0.100000,-0.100000)"
fill="#000000" stroke="none">
<path d="M1286 5843 c-15 -4 -3 -20 68 -92 l86 -86 2 -1165 3 -1165 212 -3
212 -2 11 -43 c19 -73 42 -117 83 -153 66 -60 96 -69 242 -69 144 0 174 8 239
65 71 63 89 120 106 340 13 175 33 277 66 342 13 26 27 48 30 48 5 0 172 -138
404 -334 448 -378 494 -416 506 -416 7 0 14 -6 16 -13 2 -8 59 -61 127 -118
68 -57 187 -157 264 -221 123 -105 157 -129 157 -114 0 5 -89 161 -113 197
-18 26 -17 26 13 32 45 10 56 46 35 122 -20 76 -66 176 -182 395 -138 263
-156 345 -102 469 35 82 39 82 107 -12 110 -151 289 -304 452 -384 57 -28 119
-69 155 -101 166 -149 366 -247 590 -287 119 -22 482 -32 595 -16 162 21 250
93 258 211 l4 60 129 0 c124 0 128 -1 134 -22 23 -87 33 -107 81 -155 41 -41
64 -55 118 -72 132 -41 338 -36 462 10 87 33 191 109 295 216 122 126 170 197
177 261 6 71 -31 110 -144 151 -93 34 -137 55 -171 81 l-22 17 114 111 c63 61
115 113 115 116 0 3 -74 6 -165 6 l-165 0 0 508 c0 587 -8 717 -46 797 -45 95
-121 140 -261 152 l-73 6 0 162 c0 139 -2 164 -16 169 -29 11 -862 7 -869 -5
-4 -5 32 -49 79 -96 l86 -85 0 -85 0 -85 -27 7 c-16 4 -69 10 -120 14 -50 3
-94 9 -98 13 -4 4 10 75 30 158 32 127 36 154 24 161 -20 12 -669 11 -813 -2
-245 -21 -418 -84 -616 -224 -123 -87 -286 -261 -356 -381 -10 -17 -17 -13
-85 51 -42 40 -104 86 -144 107 -63 33 -75 45 -120 114 -112 172 -280 276
-520 321 -66 13 -218 16 -860 18 -429 2 -788 1 -799 -2z m3942 -46 c4 -20 -25
-34 -40 -19 -15 15 -1 44 19 40 10 -2 19 -11 21 -21z m1202 -22 c0 -8 -7 -15
-15 -15 -8 0 -15 7 -15 15 0 8 7 15 15 15 8 0 15 -7 15 -15z m-1376 -16 c-3
-5 -10 -7 -15 -3 -5 3 -7 10 -3 15 3 5 10 7 15 3 5 -3 7 -10 3 -15z m-2334
-110 c0 -5 -4 -9 -10 -9 -5 0 -10 7 -10 16 0 8 5 12 10 9 6 -3 10 -10 10 -16z
m1665 -9 c-5 -8 -11 -8 -17 -2 -6 6 -7 16 -3 22 5 8 11 8 17 2 6 -6 7 -16 3
-22z m825 -86 c0 -17 -22 -14 -28 4 -2 7 3 12 12 12 9 0 16 -7 16 -16z m-155
-69 c0 -30 -39 -27 -43 3 -3 20 0 23 20 20 15 -2 23 -10 23 -23z m-1625 -30
c0 -8 -7 -15 -15 -15 -8 0 -15 7 -15 15 0 8 7 15 15 15 8 0 15 -7 15 -15z
m1825 -15 c0 -8 -8 -16 -17 -18 -13 -2 -18 3 -18 18 0 15 5 20 18 18 9 -2 17
-10 17 -18z m-355 -30 c0 -5 -2 -10 -4 -10 -3 0 -8 5 -11 10 -3 6 -1 10 4 10
6 0 11 -4 11 -10z m-1710 -20 c0 -21 -15 -27 -25 -10 -7 12 2 30 16 30 5 0 9
-9 9 -20z m2920 -124 c0 -3 -4 -8 -10 -11 -5 -3 -10 -1 -10 4 0 6 5 11 10 11
6 0 10 -2 10 -4z m-1163 -42 c-9 -9 -28 6 -21 18 4 6 10 6 17 -1 6 -6 8 -13 4
-17z m286 -39 c1 -5 -6 -11 -15 -13 -11 -2 -18 3 -18 13 0 17 30 18 33 0z
m625 -51 c4 -25 -19 -47 -41 -38 -22 8 -30 34 -16 51 17 20 53 12 57 -13z
m-575 -11 c-7 -2 -19 -2 -25 0 -7 3 -2 5 12 5 14 0 19 -2 13 -5z m-1085 -26
c4 -20 -25 -34 -40 -19 -15 15 -1 44 19 40 10 -2 19 -11 21 -21z m280 -18 c-2
-6 -8 -10 -13 -10 -5 0 -11 4 -13 10 -2 6 4 11 13 11 9 0 15 -5 13 -11z m-331
-115 c-9 -9 -28 6 -21 18 4 6 10 6 17 -1 6 -6 8 -13 4 -17z m-1247 1 c0 -8 -4
-15 -9 -15 -5 0 -11 7 -15 15 -3 9 0 15 9 15 8 0 15 -7 15 -15z m2907 -127
c-15 -27 -17 -84 -17 -619 0 -324 -2 -589 -5 -589 -2 0 -24 13 -47 30 -43 30
-139 60 -189 60 -31 0 -32 4 -84 218 l-28 112 -261 0 c-143 0 -285 3 -314 6
l-52 7 -20 64 c-25 81 -27 216 -4 294 50 172 192 312 374 367 71 21 114 28
295 41 157 13 211 25 276 65 l54 32 19 -29 c19 -28 19 -31 3 -59z m-1797 14
c0 -13 -12 -22 -22 -16 -10 6 -1 24 13 24 5 0 9 -4 9 -8z m2318 -9 c-2 -10
-10 -18 -18 -18 -8 0 -16 8 -18 18 -2 12 3 17 18 17 15 0 20 -5 18 -17z
m-2173 -3 c-3 -5 -10 -10 -16 -10 -5 0 -9 5 -9 10 0 6 7 10 16 10 8 0 12 -4 9
-10z m-1360 -50 c-11 -5 -27 -9 -35 -9 -9 0 -8 4 5 9 11 5 27 9 35 9 9 0 8 -4
-5 -9z m681 -1 c10 -17 -13 -36 -27 -22 -12 12 -4 33 11 33 5 0 12 -5 16 -11z
m765 -12 c-1 -12 -15 -9 -19 4 -3 6 1 10 8 8 6 -3 11 -8 11 -12z m-1251 -57
c0 -5 -4 -10 -10 -10 -5 0 -10 5 -10 10 0 6 5 10 10 10 6 0 10 -4 10 -10z
m3145 -20 c3 -5 -1 -10 -10 -10 -9 0 -13 5 -10 10 3 6 8 10 10 10 2 0 7 -4 10
-10z m-3292 -51 c-17 -17 -37 -1 -22 17 8 10 15 12 23 4 7 -7 7 -13 -1 -21z
m337 -20 c0 -5 -7 -9 -15 -9 -9 0 -12 6 -9 15 6 15 24 11 24 -6z m210 1 c0 -5
-4 -10 -10 -10 -5 0 -10 5 -10 10 0 6 5 10 10 10 6 0 10 -4 10 -10z m963 -22
c7 -21 -12 -48 -34 -48 -22 0 -34 22 -25 45 7 18 53 20 59 3z m-2246 -106 c43
-57 -35 -124 -89 -75 -40 36 -3 111 50 98 14 -3 32 -14 39 -23z m2097 -23 c50
-23 57 -103 13 -134 -31 -21 -62 -18 -93 8 -47 41 -29 119 30 130 11 2 22 5
23 6 1 0 13 -4 27 -10z m117 -12 c-13 -13 -26 -3 -16 12 3 6 11 8 17 5 6 -4 6
-10 -1 -17z m-914 -24 c-3 -3 -11 -2 -17 2 -9 6 -9 10 1 16 14 8 27 -7 16 -18z
m2923 23 c0 -3 -4 -8 -10 -11 -5 -3 -10 -1 -10 4 0 6 5 11 10 11 6 0 10 -2 10
-4z m-2048 -21 c0 -5 -5 -11 -11 -13 -6 -2 -11 4 -11 13 0 9 5 15 11 13 6 -2
11 -8 11 -13z m-2442 -55 c0 -5 -4 -10 -10 -10 -5 0 -10 5 -10 10 0 6 5 10 10
10 6 0 10 -4 10 -10z m2567 -26 c-9 -9 -28 6 -21 18 4 6 10 6 17 -1 6 -6 8
-13 4 -17z m1503 -164 c0 -5 -7 -10 -15 -10 -8 0 -15 5 -15 10 0 6 7 10 15 10
8 0 15 -4 15 -10z m-2030 -110 c0 -11 -4 -20 -9 -20 -14 0 -23 18 -16 30 10
17 25 11 25 -10z m-1306 -67 c9 -21 -16 -46 -37 -37 -17 6 -23 35 -10 47 12
13 41 7 47 -10z m-4 -63 c0 -5 -7 -10 -16 -10 -8 0 -12 5 -9 10 3 6 10 10 16
10 5 0 9 -4 9 -10z m3310 -50 c0 -5 -2 -10 -4 -10 -3 0 -8 5 -11 10 -3 6 -1
10 4 10 6 0 11 -4 11 -10z m-960 -75 c0 -8 -7 -15 -15 -15 -8 0 -15 7 -15 15
0 8 7 15 15 15 8 0 15 -7 15 -15z m-3245 -120 c0 -13 -8 -21 -22 -23 -19 -3
-23 1 -23 23 0 22 4 26 23 23 14 -2 22 -10 22 -23z m1775 -45 c0 -11 -6 -20
-14 -20 -18 0 -29 16 -21 30 11 18 35 11 35 -10z m-1820 -130 c0 -13 -7 -20
-20 -20 -19 0 -27 20 -13 33 13 14 33 6 33 -13z m295 -129 c7 -12 -12 -24 -25
-16 -11 7 -4 25 10 25 5 0 11 -4 15 -9z m1785 -252 c0 -5 -7 -9 -15 -9 -15 0
-20 12 -9 23 8 8 24 -1 24 -14z"/>
</g>
</svg>
